{
	"asset":{
		"generator":"Khronos glTF Blender I/O v3.6.28",
		"version":"2.0"
	},
	"extensionsUsed":[
		"KHR_materials_transmission",
		"KHR_materials_specular",
		"KHR_materials_ior"
	],
	"scene":0,
	"scenes":[
		{
			"name":"Scene",
			"nodes":[
				0
			]
		}
	],
	"nodes":[
		{
			"mesh":0,
			"name":"Box001",
			"scale":[
				0.009999999776482582,
				0.009999999776482582,
				0.009999999776482582
			]
		}
	],
	"materials":[
		{
			"doubleSided":true,
			"extensions":{
				"KHR_materials_transmission":{
					"transmissionFactor":1
				},
				"KHR_materials_specular":{
					"specularColorFactor":[
						1,
						1,
						1
					]
				},
				"KHR_materials_ior":{
					"ior":1.4500000476837158
				}
			},
			"name":"Material.001",
			"pbrMetallicRoughness":{
				"baseColorFactor":[
					0.24901990592479706,
					0.28608590364456177,
					0.3843739330768585,
					1
				],
				"metallicFactor":0,
				"roughnessFactor":0.2564767003059387
			}
		},
		{
			"doubleSided":true,
			"name":"Material.002",
			"pbrMetallicRoughness":{
				"baseColorFactor":[
					0.800000011920929,
					0.800000011920929,
					0.800000011920929,
					1
				],
				"metallicFactor":0,
				"roughnessFactor":0.5
			}
		},
		{
			"doubleSided":true,
			"name":"Material.003",
			"pbrMetallicRoughness":{
				"baseColorFactor":[
					0.25294259190559387,
					0.18560317158699036,
					0.18560317158699036,
					1
				],
				"metallicFactor":0,
				"roughnessFactor":0.5
			}
		}
	],
	"meshes":[
		{
			"name":"Mesh",
			"primitives":[
				{
					"attributes":{
						"POSITION":0,
						"NORMAL":1
					},
					"indices":2,
					"material":0
				},
				{
					"attributes":{
						"POSITION":3,
						"NORMAL":4
					},
					"indices":5,
					"material":1
				},
				{
					"attributes":{
						"POSITION":6,
						"NORMAL":7
					},
					"indices":8,
					"material":2
				}
			]
		}
	],
	"accessors":[
		{
			"bufferView":0,
			"componentType":5126,
			"count":16,
			"max":[
				56.00048828125,
				206,
				-246.49000549316406
			],
			"min":[
				-296,
				64,
				-253.50999450683594
			],
			"type":"VEC3"
		},
		{
			"bufferView":1,
			"componentType":5126,
			"count":16,
			"type":"VEC3"
		},
		{
			"bufferView":2,
			"componentType":5123,
			"count":36,
			"type":"SCALAR"
		},
		{
			"bufferView":3,
			"componentType":5126,
			"count":492,
			"max":[
				353.510009765625,
				300,
				252.48194885253906
			],
			"min":[
				-353.510009765625,
				-1.0264995098114014,
				-253.50999450683594
			],
			"type":"VEC3"
		},
		{
			"bufferView":4,
			"componentType":5126,
			"count":492,
			"type":"VEC3"
		},
		{
			"bufferView":5,
			"componentType":5123,
			"count":1392,
			"type":"SCALAR"
		},
		{
			"bufferView":6,
			"componentType":5126,
			"count":8,
			"max":[
				352.0264892578125,
				3.0264995098114014,
				252.02650451660156
			],
			"min":[
				-352.0264892578125,
				-1.0264995098114014,
				-252.02650451660156
			],
			"type":"VEC3"
		},
		{
			"bufferView":7,
			"componentType":5126,
			"count":8,
			"type":"VEC3"
		},
		{
			"bufferView":8,
			"componentType":5123,
			"count":12,
			"type":"SCALAR"
		}
	],
	"bufferViews":[
		{
			"buffer":0,
			"byteLength":192,
			"byteOffset":0,
			"target":34962
		},
		{
			"buffer":0,
			"byteLength":192,
			"byteOffset":192,
			"target":34962
		},
		{
			"buffer":0,
			"byteLength":72,
			"byteOffset":384,
			"target":34963
		},
		{
			"buffer":0,
			"byteLength":5904,
			"byteOffset":456,
			"target":34962
		},
		{
			"buffer":0,
			"byteLength":5904,
			"byteOffset":6360,
			"target":34962
		},
		{
			"buffer":0,
			"byteLength":2784,
			"byteOffset":12264,
			"target":34963
		},
		{
			"buffer":0,
			"byteLength":96,
			"byteOffset":15048,
			"target":34962
		},
		{
			"buffer":0,
			"byteLength":96,
			"byteOffset":15144,
			"target":34962
		},
		{
			"buffer":0,
			"byteLength":24,
			"byteOffset":15240,
			"target":34963
		}
	],
	"buffers":[
		{
			"byteLength":15264,
			"uri":"data:application/octet-stream;base64,"
		}
	]
}
